          <svg xmlns="http://www.w3.org/2000/svg" xmlns:xlink="http://www.w3.org/1999/xlink" width="1920" height="1080" viewBox="0 0 1920 1080">
            <defs>
              <clipPath id="clip-iPhone_14_Pro_1_w">
                <rect width="1920" height="1080"/>
              </clipPath>
            </defs>
            <g id="iPhone_14_Pro_1_w" data-name="iPhone 14 Pro – 1" clip-path="url(#clip-iPhone_14_Pro_1_w)">
              <rect width="1920" height="1080" fill="transparent" />
              <path id="Esclusione_5" data-name="Esclusione 5" d="M11133,450H9213V-630h1920V450Zm-291.5-136a41.365,41.365,0,1,0,16.153,3.261A41.239,41.239,0,0,0,10841.5,314Zm-98,0a41.365,41.365,0,1,0,16.154,3.261A41.238,41.238,0,0,0,10743.5,314Zm-98,0a41.365,41.365,0,1,0,16.154,3.261A41.239,41.239,0,0,0,10645.5,314Zm-294,0a41.365,41.365,0,1,0,16.154,3.261A41.238,41.238,0,0,0,10351.5,314Zm-294,0a41.365,41.365,0,1,0,16.154,3.261A41.239,41.239,0,0,0,10057.5,314Zm-196,0a41.365,41.365,0,1,0,16.154,3.261A41.239,41.239,0,0,0,9861.5,314Zm1078-92a41.364,41.364,0,1,0,16.153,3.262A41.238,41.238,0,0,0,10939.5,222Zm-98,0a41.364,41.364,0,1,0,16.153,3.262A41.238,41.238,0,0,0,10841.5,222Zm-98,0a41.364,41.364,0,1,0,16.154,3.262A41.234,41.234,0,0,0,10743.5,222Zm-196,0a41.364,41.364,0,1,0,16.154,3.262A41.234,41.234,0,0,0,10547.5,222Zm-294,0a41.364,41.364,0,1,0,16.154,3.262A41.238,41.238,0,0,0,10253.5,222Zm-490,0a41.36,41.36,0,1,0,16.152,3.262A41.247,41.247,0,0,0,9763.5,222Zm1176-94a41.366,41.366,0,1,0,16.153,3.261A41.239,41.239,0,0,0,10939.5,128Zm-98,0a41.366,41.366,0,1,0,16.153,3.261A41.239,41.239,0,0,0,10841.5,128Zm-98,0a41.366,41.366,0,1,0,16.154,3.261A41.237,41.237,0,0,0,10743.5,128Zm-196,0a41.366,41.366,0,1,0,16.154,3.261A41.237,41.237,0,0,0,10547.5,128Zm-98,0a41.366,41.366,0,1,0,16.154,3.261A41.246,41.246,0,0,0,10449.5,128Zm-98,0a41.366,41.366,0,1,0,16.154,3.261A41.237,41.237,0,0,0,10351.5,128Zm-98,0a41.366,41.366,0,1,0,16.154,3.261A41.242,41.242,0,0,0,10253.5,128Zm-196,0a41.366,41.366,0,1,0,16.154,3.261A41.239,41.239,0,0,0,10057.5,128Zm-98,0a41.366,41.366,0,1,0,16.153,3.261A41.239,41.239,0,0,0,9959.5,128Zm-392,0a41.366,41.366,0,1,0,16.154,3.261A41.237,41.237,0,0,0,9567.5,128Zm1470-94a41.366,41.366,0,1,0,16.153,3.261A41.243,41.243,0,0,0,11037.5,34Zm-98,0a41.366,41.366,0,1,0,16.153,3.261A41.238,41.238,0,0,0,10939.5,34Zm-196,0a41.366,41.366,0,1,0,16.154,3.261A41.237,41.237,0,0,0,10743.5,34Zm-98,0a41.366,41.366,0,1,0,16.154,3.261A41.238,41.238,0,0,0,10645.5,34Zm-196,0a41.366,41.366,0,1,0,16.154,3.261A41.246,41.246,0,0,0,10449.5,34Zm-98,0a41.366,41.366,0,1,0,16.154,3.261A41.237,41.237,0,0,0,10351.5,34Zm-98,0a41.366,41.366,0,1,0,16.154,3.261A41.242,41.242,0,0,0,10253.5,34Zm-98,0a41.366,41.366,0,1,0,16.153,3.261A41.246,41.246,0,0,0,10155.5,34Zm-196,0a41.366,41.366,0,1,0,16.153,3.261A41.238,41.238,0,0,0,9959.5,34Zm-196,0a41.361,41.361,0,1,0,16.152,3.261A41.243,41.243,0,0,0,9763.5,34Zm1274-94a41.247,41.247,0,0,0-16.155,3.261,41.337,41.337,0,0,0-13.19,8.893,41.334,41.334,0,0,0-8.894,13.191A41.233,41.233,0,0,0,10996-18.5a41.23,41.23,0,0,0,3.261,16.153,41.351,41.351,0,0,0,8.894,13.191,41.355,41.355,0,0,0,13.19,8.894A41.243,41.243,0,0,0,11037.5,23a41.237,41.237,0,0,0,16.153-3.261,41.363,41.363,0,0,0,13.19-8.894,41.367,41.367,0,0,0,8.895-13.191A41.23,41.23,0,0,0,11079-18.5a41.235,41.235,0,0,0-3.261-16.155,41.361,41.361,0,0,0-8.895-13.191,41.356,41.356,0,0,0-13.19-8.893A41.241,41.241,0,0,0,11037.5-60Zm-294,0a41.241,41.241,0,0,0-16.153,3.261,41.353,41.353,0,0,0-13.19,8.893,41.369,41.369,0,0,0-8.895,13.191A41.235,41.235,0,0,0,10702-18.5a41.23,41.23,0,0,0,3.261,16.153,41.373,41.373,0,0,0,8.895,13.191,41.37,41.37,0,0,0,13.19,8.894A41.237,41.237,0,0,0,10743.5,23a41.238,41.238,0,0,0,16.154-3.261,41.372,41.372,0,0,0,13.19-8.894,41.367,41.367,0,0,0,8.895-13.191A41.23,41.23,0,0,0,10785-18.5a41.233,41.233,0,0,0-3.261-16.155,41.361,41.361,0,0,0-8.895-13.191,41.358,41.358,0,0,0-13.19-8.893A41.246,41.246,0,0,0,10743.5-60Zm-294,0a41.246,41.246,0,0,0-16.154,3.261,41.349,41.349,0,0,0-13.19,8.893,41.351,41.351,0,0,0-8.9,13.191A41.246,41.246,0,0,0,10408-18.5a41.242,41.242,0,0,0,3.262,16.153,41.355,41.355,0,0,0,8.9,13.191,41.359,41.359,0,0,0,13.19,8.894A41.246,41.246,0,0,0,10449.5,23a41.238,41.238,0,0,0,16.154-3.261,41.372,41.372,0,0,0,13.19-8.894,41.367,41.367,0,0,0,8.895-13.191A41.23,41.23,0,0,0,10491-18.5a41.233,41.233,0,0,0-3.261-16.155,41.361,41.361,0,0,0-8.895-13.191,41.358,41.358,0,0,0-13.19-8.893A41.246,41.246,0,0,0,10449.5-60Zm-98,0a41.241,41.241,0,0,0-16.153,3.261,41.353,41.353,0,0,0-13.19,8.893,41.369,41.369,0,0,0-8.895,13.191A41.235,41.235,0,0,0,10310-18.5a41.23,41.23,0,0,0,3.261,16.153,41.373,41.373,0,0,0,8.895,13.191,41.37,41.37,0,0,0,13.19,8.894A41.237,41.237,0,0,0,10351.5,23a41.246,41.246,0,0,0,16.154-3.261,41.372,41.372,0,0,0,13.19-8.894,41.356,41.356,0,0,0,8.894-13.191A41.242,41.242,0,0,0,10393-18.5a41.246,41.246,0,0,0-3.262-16.155,41.355,41.355,0,0,0-8.894-13.191,41.358,41.358,0,0,0-13.19-8.893A41.253,41.253,0,0,0,10351.5-60Zm-196,0a41.253,41.253,0,0,0-16.154,3.261,41.358,41.358,0,0,0-13.19,8.893,41.355,41.355,0,0,0-8.894,13.191A41.246,41.246,0,0,0,10114-18.5a41.242,41.242,0,0,0,3.262,16.153,41.356,41.356,0,0,0,8.894,13.191,41.372,41.372,0,0,0,13.19,8.894A41.246,41.246,0,0,0,10155.5,23a41.237,41.237,0,0,0,16.153-3.261,41.37,41.37,0,0,0,13.19-8.894,41.373,41.373,0,0,0,8.895-13.191A41.23,41.23,0,0,0,10197-18.5a41.235,41.235,0,0,0-3.261-16.155,41.369,41.369,0,0,0-8.895-13.191,41.353,41.353,0,0,0-13.19-8.893A41.241,41.241,0,0,0,10155.5-60Zm686-94a41.246,41.246,0,0,0-16.154,3.261,41.364,41.364,0,0,0-13.191,8.893,41.353,41.353,0,0,0-8.9,13.19A41.239,41.239,0,0,0,10800-112.5a41.246,41.246,0,0,0,3.262,16.155,41.351,41.351,0,0,0,8.9,13.191,41.362,41.362,0,0,0,13.191,8.893A41.246,41.246,0,0,0,10841.5-71a41.241,41.241,0,0,0,16.153-3.261,41.356,41.356,0,0,0,13.19-8.893,41.361,41.361,0,0,0,8.895-13.191A41.235,41.235,0,0,0,10883-112.5a41.228,41.228,0,0,0-3.261-16.153,41.355,41.355,0,0,0-8.895-13.19,41.352,41.352,0,0,0-13.19-8.893A41.241,41.241,0,0,0,10841.5-154Zm-392,0a41.253,41.253,0,0,0-16.154,3.261,41.345,41.345,0,0,0-13.19,8.893,41.353,41.353,0,0,0-8.9,13.19A41.239,41.239,0,0,0,10408-112.5a41.246,41.246,0,0,0,3.262,16.155,41.351,41.351,0,0,0,8.9,13.191,41.349,41.349,0,0,0,13.19,8.893A41.246,41.246,0,0,0,10449.5-71a41.246,41.246,0,0,0,16.154-3.261,41.358,41.358,0,0,0,13.19-8.893,41.361,41.361,0,0,0,8.895-13.191A41.233,41.233,0,0,0,10491-112.5a41.228,41.228,0,0,0-3.261-16.153,41.355,41.355,0,0,0-8.895-13.19,41.365,41.365,0,0,0-13.19-8.893A41.246,41.246,0,0,0,10449.5-154Zm-98,0a41.241,41.241,0,0,0-16.153,3.261,41.355,41.355,0,0,0-13.19,8.893,41.361,41.361,0,0,0-8.895,13.19A41.228,41.228,0,0,0,10310-112.5a41.235,41.235,0,0,0,3.261,16.155,41.369,41.369,0,0,0,8.895,13.191,41.353,41.353,0,0,0,13.19,8.893A41.241,41.241,0,0,0,10351.5-71a41.253,41.253,0,0,0,16.154-3.261,41.358,41.358,0,0,0,13.19-8.893,41.356,41.356,0,0,0,8.894-13.191A41.246,41.246,0,0,0,10393-112.5a41.239,41.239,0,0,0-3.262-16.153,41.347,41.347,0,0,0-8.894-13.19,41.365,41.365,0,0,0-13.19-8.893A41.253,41.253,0,0,0,10351.5-154Zm-196,0a41.253,41.253,0,0,0-16.154,3.261,41.365,41.365,0,0,0-13.19,8.893,41.347,41.347,0,0,0-8.894,13.19A41.239,41.239,0,0,0,10114-112.5a41.246,41.246,0,0,0,3.262,16.155,41.356,41.356,0,0,0,8.894,13.191,41.358,41.358,0,0,0,13.19,8.893A41.253,41.253,0,0,0,10155.5-71a41.241,41.241,0,0,0,16.153-3.261,41.353,41.353,0,0,0,13.19-8.893,41.369,41.369,0,0,0,8.895-13.191A41.235,41.235,0,0,0,10197-112.5a41.228,41.228,0,0,0-3.261-16.153,41.361,41.361,0,0,0-8.895-13.19,41.355,41.355,0,0,0-13.19-8.893A41.241,41.241,0,0,0,10155.5-154Zm882-94a41.243,41.243,0,0,0-16.155,3.261,41.355,41.355,0,0,0-13.19,8.894,41.351,41.351,0,0,0-8.894,13.191A41.23,41.23,0,0,0,10996-206.5a41.23,41.23,0,0,0,3.261,16.153,41.351,41.351,0,0,0,8.894,13.191,41.355,41.355,0,0,0,13.19,8.894A41.243,41.243,0,0,0,11037.5-165a41.237,41.237,0,0,0,16.153-3.261,41.363,41.363,0,0,0,13.19-8.894,41.367,41.367,0,0,0,8.895-13.191A41.23,41.23,0,0,0,11079-206.5a41.23,41.23,0,0,0-3.261-16.153,41.368,41.368,0,0,0-8.895-13.191,41.363,41.363,0,0,0-13.19-8.894A41.237,41.237,0,0,0,11037.5-248Zm-392,0a41.238,41.238,0,0,0-16.154,3.261,41.339,41.339,0,0,0-13.19,8.894,41.351,41.351,0,0,0-8.894,13.191A41.23,41.23,0,0,0,10604-206.5a41.23,41.23,0,0,0,3.261,16.153,41.351,41.351,0,0,0,8.894,13.191,41.339,41.339,0,0,0,13.19,8.894A41.238,41.238,0,0,0,10645.5-165a41.238,41.238,0,0,0,16.154-3.261,41.372,41.372,0,0,0,13.19-8.894,41.367,41.367,0,0,0,8.895-13.191A41.23,41.23,0,0,0,10687-206.5a41.23,41.23,0,0,0-3.261-16.153,41.368,41.368,0,0,0-8.895-13.191,41.372,41.372,0,0,0-13.19-8.894A41.238,41.238,0,0,0,10645.5-248Zm-98,0a41.237,41.237,0,0,0-16.153,3.261,41.37,41.37,0,0,0-13.19,8.894,41.373,41.373,0,0,0-8.895,13.191A41.23,41.23,0,0,0,10506-206.5a41.23,41.23,0,0,0,3.261,16.153,41.373,41.373,0,0,0,8.895,13.191,41.37,41.37,0,0,0,13.19,8.894A41.237,41.237,0,0,0,10547.5-165a41.238,41.238,0,0,0,16.154-3.261,41.372,41.372,0,0,0,13.19-8.894,41.367,41.367,0,0,0,8.895-13.191A41.23,41.23,0,0,0,10589-206.5a41.23,41.23,0,0,0-3.261-16.153,41.368,41.368,0,0,0-8.895-13.191,41.372,41.372,0,0,0-13.19-8.894A41.238,41.238,0,0,0,10547.5-248Z" transform="translate(-9213 630)" fill="#fff"/>
            </g>
          </svg>          
