<svg width="954" height="933" viewBox="0 0 954 933" fill="none" xmlns="http://www.w3.org/2000/svg">
<g clip-path="url(#clip0_1033_953)">
<g style="mix-blend-mode:multiply">
<path d="M688.5 594.22H234.43C226.75 594.22 220.53 588 220.53 580.32C220.53 572.64 226.75 566.42 234.43 566.42C242.99 566.27 335.74 564.48 344.64 564.2C493.15 553.76 607.31 430.5 607.41 281.85C607.55 132.9 491.83 10.7 343.71 0.5H20.55L21.06 225.29H312.93C345.15 225.22 371.33 251.29 371.4 283.51C371.4 283.52 371.4 283.54 371.4 283.55C371.4 315.71 347.42 335.59 312.93 341.83C274.83 346.71 236.74 351.59 198.66 356.48C140.61 363.92 87.76 393.74 51.4 439.59C-2.86 504.8 -14.81 595.39 20.7 672.43C20.6 672.19 20.32 672.08 20.09 672.19C19.9 672.27 19.79 672.47 19.81 672.67L20.73 672.49C22.16 675.59 23.66 678.64 25.23 681.66C63.36 758.64 141.84 807.34 227.74 807.35C227.74 807.35 654.34 807.35 655.84 807.3C690.4 807.29 718.42 835.29 718.44 869.85C718.45 904.41 690.45 932.43 655.89 932.45H655.84L943.82 932.25C943.39 932.25 943.2 932 943.34 931.63C990.78 762.76 863.89 594.24 688.5 594.24" fill="#AB8871"/>
</g>
</g>
<defs>
<clipPath id="clip0_1033_953">
<rect width="953.94" height="932.93" fill="white"/>
</clipPath>
</defs>
</svg>
