<svg id="Componente_25_1" data-name="Componente 25 – 1" xmlns="http://www.w3.org/2000/svg" xmlns:xlink="http://www.w3.org/1999/xlink" width="89.5" height="111.08" viewBox="0 0 89.5 111.08">
  <defs>
    <clipPath id="clip-path">
      <rect id="Rettangolo_1034" data-name="Rettangolo 1034" width="89.5" height="111.08" fill="none"/>
    </clipPath>
    <clipPath id="clip-path-2">
      <rect id="Rettangolo_1062" data-name="Rettangolo 1062" width="28.883" height="10.683" fill="none"/>
    </clipPath>
  </defs>
  <g id="Raggruppa_10717" data-name="Raggruppa 10717" transform="translate(0 0)">
    <g id="Raggruppa_10707" data-name="Raggruppa 10707" transform="translate(0 0)" clip-path="url(#clip-path)">
      <path id="Tracciato_11513" data-name="Tracciato 11513" d="M65.385.5H.5V110.2H88.616V23.641Z" transform="translate(0.192 0.193)" fill="none" stroke="#161615" stroke-miterlimit="10" stroke-width="1"/>
      <path id="Tracciato_11514" data-name="Tracciato 11514" d="M70.6,23.7H47.4V.5" transform="translate(18.234 0.193)" fill="none" stroke="#161615" stroke-miterlimit="10" stroke-width="1"/>
    </g>
  </g>
  <g id="Raggruppa_10807" data-name="Raggruppa 10807" transform="translate(30.31 82.071)">
    <g id="Raggruppa_10806" data-name="Raggruppa 10806" transform="translate(0 0)" clip-path="url(#clip-path-2)">
      <path id="Tracciato_11575" data-name="Tracciato 11575" d="M.763,4.486h1.51A1.564,1.564,0,0,0,3.891,2.9,1.571,1.571,0,0,0,2.136,1.312a3.4,3.4,0,0,0-2.014.611V.489A4.169,4.169,0,0,1,2.182,0,2.8,2.8,0,0,1,5.25,2.747,2.448,2.448,0,0,1,3.862,5.1,2.657,2.657,0,0,1,5.54,7.707a3.051,3.051,0,0,1-3.312,2.976A4.713,4.713,0,0,1,0,10.148v-1.5a3.443,3.443,0,0,0,2.167.718A1.854,1.854,0,0,0,4.182,7.554,1.8,1.8,0,0,0,2.289,5.737H.763Z" transform="translate(0 0.001)"/>
      <path id="Tracciato_11576" data-name="Tracciato 11576" d="M5.987.121H9.65a4.854,4.854,0,0,1,5.067,5.187A4.854,4.854,0,0,1,9.65,10.5H5.987ZM7.3,1.372V9.245H9.635a3.622,3.622,0,0,0,3.723-3.937A3.63,3.63,0,0,0,9.635,1.372Z" transform="translate(1.631 0.034)"/>
      <path id="Tracciato_11577" data-name="Tracciato 11577" d="M19.118,10.5,15.76,2.607V10.5H14.448V.12H16l3.709,8.713L23.406.12h1.542V10.5H23.635V2.607L20.292,10.5Z" transform="translate(3.935 0.033)"/>
    </g>
  </g>
</svg>
