<svg id="Componente_27_1" data-name="Componente 27 – 1" xmlns="http://www.w3.org/2000/svg" xmlns:xlink="http://www.w3.org/1999/xlink" width="89.5" height="111.08" viewBox="0 0 89.5 111.08">
  <defs>
    <clipPath id="clip-path">
      <rect id="Rettangolo_1034" data-name="Rettangolo 1034" width="89.5" height="111.08" fill="none"/>
    </clipPath>
    <clipPath id="clip-path-2">
      <rect id="Rettangolo_1058" data-name="Rettangolo 1058" width="34.837" height="10.683" fill="none"/>
    </clipPath>
  </defs>
  <g id="Raggruppa_10811" data-name="Raggruppa 10811" transform="translate(0 0)">
    <g id="Raggruppa_10707" data-name="Raggruppa 10707" transform="translate(0 0)" clip-path="url(#clip-path)">
      <path id="Tracciato_11513" data-name="Tracciato 11513" d="M65.385.5H.5V110.2H88.616V23.641Z" transform="translate(0.192 0.193)" fill="none" stroke="#161615" stroke-miterlimit="10" stroke-width="1"/>
      <path id="Tracciato_11514" data-name="Tracciato 11514" d="M70.6,23.7H47.4V.5" transform="translate(18.234 0.193)" fill="none" stroke="#161615" stroke-miterlimit="10" stroke-width="1"/>
    </g>
  </g>
  <g id="Raggruppa_10810" data-name="Raggruppa 10810" transform="translate(27 81.524)">
    <g id="Raggruppa_10795" data-name="Raggruppa 10795" transform="translate(0 0)" clip-path="url(#clip-path-2)">
      <path id="Tracciato_11560" data-name="Tracciato 11560" d="M0,.121H3.663A4.854,4.854,0,0,1,8.73,5.308,4.854,4.854,0,0,1,3.663,10.5H0ZM1.313,1.372V9.245H3.648A3.622,3.622,0,0,0,7.371,5.308,3.63,3.63,0,0,0,3.648,1.372Z" transform="translate(0 0.034)"/>
      <path id="Tracciato_11561" data-name="Tracciato 11561" d="M7.525.12H8.989L11.355,8.8l2.793-7.584L13.8.12h1.359L17.916,8.8,20.266.12h1.466L18.741,10.5h-1.48L14.788,2.988,12,10.5H10.531Z" transform="translate(2.05 0.033)"/>
      <path id="Tracciato_11562" data-name="Tracciato 11562" d="M27.591,2.06A5.553,5.553,0,0,0,24.768,1.3a3.946,3.946,0,0,0-4.074,4.045,3.882,3.882,0,0,0,3.83,4.043,3.423,3.423,0,0,0,3.631-3.434,4.848,4.848,0,0,0-.031-.5H24.447V4.257h5.005a7.239,7.239,0,0,1,.122,1.358,4.841,4.841,0,0,1-5.082,5.066,5.14,5.14,0,0,1-5.172-5.34A5.25,5.25,0,0,1,24.768,0a6.161,6.161,0,0,1,2.823.609Z" transform="translate(5.262 0.001)"/>
    </g>
  </g>
</svg>
