<svg id="Componente_24_1" data-name="Componente 24 – 1" xmlns="http://www.w3.org/2000/svg" xmlns:xlink="http://www.w3.org/1999/xlink" width="89.5" height="111.08" viewBox="0 0 89.5 111.08">
  <defs>
    <clipPath id="clip-path">
      <rect id="Rettangolo_1034" data-name="Rettangolo 1034" width="89.5" height="111.08" fill="none"/>
    </clipPath>
  </defs>
  <g id="Raggruppa_10715" data-name="Raggruppa 10715" transform="translate(0 0)">
    <g id="Raggruppa_10707" data-name="Raggruppa 10707" transform="translate(0 0)" clip-path="url(#clip-path)">
      <path id="Tracciato_11513" data-name="Tracciato 11513" d="M65.385.5H.5V110.2H88.616V23.641Z" transform="translate(0.192 0.193)" fill="none" stroke="#161615" stroke-miterlimit="10" stroke-width="1"/>
      <path id="Tracciato_11514" data-name="Tracciato 11514" d="M70.6,23.7H47.4V.5" transform="translate(18.234 0.193)" fill="none" stroke="#161615" stroke-miterlimit="10" stroke-width="1"/>
    </g>
  </g>
  <g id="Raggruppa_10805" data-name="Raggruppa 10805" transform="translate(29.643 82.377)">
    <path id="Tracciato_11572" data-name="Tracciato 11572" d="M8.958,0,5.266,8.713,1.557,0H0V10.376H1.313V2.487l3.358,7.89H5.845l3.341-7.89v7.89H10.5V0Z" transform="translate(0.001 0)"/>
    <path id="Tracciato_11573" data-name="Tracciato 11573" d="M14.1,1.724,15.759,6.21H12.432ZM13.363,0,9.456,10.376h1.481l1.054-2.9h4.2l1.083,2.9h1.481L14.844,0Z" transform="translate(2.576 0)"/>
    <path id="Tracciato_11574" data-name="Tracciato 11574" d="M23.841,0,21.292,4.044,18.744,0H17.157l3.234,5.065L17,10.376h1.587l2.7-4.289,2.715,4.289H25.58L22.192,5.066,25.428,0Z" transform="translate(4.632 0)"/>
  </g>
</svg>
