<svg id="Componente_26_1" data-name="Componente 26 – 1" xmlns="http://www.w3.org/2000/svg" xmlns:xlink="http://www.w3.org/1999/xlink" width="89.5" height="111.08" viewBox="0 0 89.5 111.08">
  <defs>
    <clipPath id="clip-path">
      <rect id="Rettangolo_1034" data-name="Rettangolo 1034" width="89.5" height="111.08" fill="none"/>
    </clipPath>
    <clipPath id="clip-path-2">
      <rect id="Rettangolo_1063" data-name="Rettangolo 1063" width="24.595" height="10.376" fill="none"/>
    </clipPath>
  </defs>
  <g id="Raggruppa_10813" data-name="Raggruppa 10813" transform="translate(0 0)">
    <g id="Raggruppa_10707" data-name="Raggruppa 10707" transform="translate(0 0)" clip-path="url(#clip-path)">
      <path id="Tracciato_11513" data-name="Tracciato 11513" d="M65.385.5H.5V110.2H88.616V23.641Z" transform="translate(0.192 0.193)" fill="none" stroke="#161615" stroke-miterlimit="10" stroke-width="1"/>
      <path id="Tracciato_11514" data-name="Tracciato 11514" d="M70.6,23.7H47.4V.5" transform="translate(18.234 0.193)" fill="none" stroke="#161615" stroke-miterlimit="10" stroke-width="1"/>
    </g>
  </g>
  <g id="Raggruppa_10812" data-name="Raggruppa 10812" transform="translate(32 82.524)">
    <g id="Raggruppa_10808" data-name="Raggruppa 10808" transform="translate(0 0)" clip-path="url(#clip-path-2)">
      <path id="Tracciato_11578" data-name="Tracciato 11578" d="M0,0H3.052A2.981,2.981,0,0,1,6.317,3.112,2.974,2.974,0,0,1,3.052,6.226H1.313v4.15H0ZM3.052,1.251H1.313V4.974H3.052A1.722,1.722,0,0,0,4.96,3.127,1.746,1.746,0,0,0,3.052,1.251" transform="translate(0 0)"/>
      <path id="Tracciato_11579" data-name="Tracciato 11579" d="M6.481,0h3.662a4.854,4.854,0,0,1,5.067,5.187,4.854,4.854,0,0,1-5.067,5.189H6.481ZM7.793,1.251V9.124h2.335a3.622,3.622,0,0,0,3.723-3.937,3.63,3.63,0,0,0-3.723-3.937Z" transform="translate(1.765 0)"/>
      <path id="Tracciato_11580" data-name="Tracciato 11580" d="M16.253,6.2v4.181H14.941V0h5.584V1.251H16.253V4.944H20.22V6.2Z" transform="translate(4.069 0)"/>
    </g>
  </g>
</svg>
