<svg id="Componente_23_1" data-name="Componente 23 – 1" xmlns="http://www.w3.org/2000/svg" xmlns:xlink="http://www.w3.org/1999/xlink" width="89.5" height="111.08" viewBox="0 0 89.5 111.08">
  <defs>
    <clipPath id="clip-path">
      <rect id="Rettangolo_1034" data-name="Rettangolo 1034" width="89.5" height="111.08" fill="none"/>
    </clipPath>
    <clipPath id="clip-path-2">
      <rect id="Rettangolo_1061" data-name="Rettangolo 1061" width="22.638" height="10.683" fill="none"/>
    </clipPath>
  </defs>
  <g id="Raggruppa_10713" data-name="Raggruppa 10713" transform="translate(0 0)">
    <g id="Raggruppa_10707" data-name="Raggruppa 10707" transform="translate(0 0)" clip-path="url(#clip-path)">
      <path id="Tracciato_11513" data-name="Tracciato 11513" d="M65.385.5H.5V110.2H88.616V23.641Z" transform="translate(0.192 0.193)" fill="none" stroke="#161615" stroke-miterlimit="10" stroke-width="1"/>
      <path id="Tracciato_11514" data-name="Tracciato 11514" d="M70.6,23.7H47.4V.5" transform="translate(18.234 0.193)" fill="none" stroke="#161615" stroke-miterlimit="10" stroke-width="1"/>
    </g>
  </g>
  <g id="Raggruppa_10804" data-name="Raggruppa 10804" transform="translate(33.431 81.217)">
    <g id="Raggruppa_10803" data-name="Raggruppa 10803" transform="translate(0 0)" clip-path="url(#clip-path-2)">
      <path id="Tracciato_11569" data-name="Tracciato 11569" d="M5.479,2.045A3.782,3.782,0,0,0,3.22,1.235c-1.13,0-1.816.58-1.816,1.45a1.636,1.636,0,0,0,.961,1.373l1.8,1.13A2.984,2.984,0,0,1,5.922,7.859c0,1.48-1.084,2.823-3.281,2.823a5.675,5.675,0,0,1-2.549-.626V8.515a3.991,3.991,0,0,0,2.518.931c1.252,0,1.923-.718,1.923-1.526,0-.55-.365-1.053-1.129-1.527L1.618,5.265A2.8,2.8,0,0,1,0,2.716C0,1.388.9,0,3.251,0A4.478,4.478,0,0,1,5.479.565Z" transform="translate(0 0.001)"/>
      <path id="Tracciato_11570" data-name="Tracciato 11570" d="M6.215.12H7.528V5.2L11.4.12h1.571l-3.2,4.242L13.128,10.5H11.572L8.855,5.46,7.528,7.124V10.5H6.215Z" transform="translate(1.693 0.033)"/>
      <path id="Tracciato_11571" data-name="Tracciato 11571" d="M12.828.121h3.051a2.981,2.981,0,0,1,3.265,3.112,2.974,2.974,0,0,1-3.265,3.113H14.14V10.5H12.828Zm3.051,1.251H14.14V5.095h1.739a1.722,1.722,0,0,0,1.907-1.846,1.746,1.746,0,0,0-1.907-1.877" transform="translate(3.494 0.034)"/>
    </g>
  </g>
</svg>
